{
  "accessors": [
    {
      "bufferView": 2,
      "componentType": 5126,
      "count": 65532,
      "max": [
        0.42671701312065125,
        0.38525301218032837,
        0.9485440254211426
      ],
      "min": [
        -0.37765198945999146,
        -0.40794500708580017,
        -0.9507219791412354
      ],
      "type": "VEC3"
    },
    {
      "bufferView": 2,
      "byteOffset": 786384,
      "componentType": 5126,
      "count": 65532,
      "max": [
        0.9999575614929199,
        0.9999959468841553,
        0.9999966621398926
      ],
      "min": [
        -0.9999802112579346,
        -0.9999883770942688,
        -1.0
      ],
      "type": "VEC3"
    },
    {
      "bufferView": 1,
      "componentType": 5126,
      "count": 65532,
      "max": [
        0.9953020215034485,
        0.9984170198440552
      ],
      "min": [
        2.9000000722589903e-05,
        2.4974346160888672e-05
      ],
      "type": "VEC2"
    },
    {
      "bufferView": 0,
      "componentType": 5125,
      "count": 356262,
      "type": "SCALAR"
    },
    {
      "bufferView": 2,
      "byteOffset": 1572768,
      "componentType": 5126,
      "count": 65532,
      "max": [
        0.4023379981517792,
        0.1441739946603775,
        0.9223470091819763
      ],
      "min": [
        -0.3248150050640106,
        -0.4449549913406372,
        -0.9507550001144409
      ],
      "type": "VEC3"
    },
    {
      "bufferView": 2,
      "byteOffset": 2359152,
      "componentType": 5126,
      "count": 65532,
      "max": [
        0.9999984502792358,
        0.9999602437019348,
        0.9999657869338989
      ],
      "min": [
        -0.99997478723526,
        -0.9999955296516418,
        -1.0
      ],
      "type": "VEC3"
    },
    {
      "bufferView": 1,
      "byteOffset": 524256,
      "componentType": 5126,
      "count": 65532,
      "max": [
        0.9968590140342712,
        0.9984170198440552
      ],
      "min": [
        0.0003530000103637576,
        7.49826431274414e-05
      ],
      "type": "VEC2"
    },
    {
      "bufferView": 0,
      "byteOffset": 1425048,
      "componentType": 5125,
      "count": 348012,
      "type": "SCALAR"
    },
    {
      "bufferView": 2,
      "byteOffset": 3145536,
      "componentType": 5126,
      "count": 65532,
      "max": [
        -0.010526999831199646,
        0.42151400446891785,
        0.9143940210342407
      ],
      "min": [
        -0.3456149995326996,
        -0.4614950120449066,
        -0.950760006904602
      ],
      "type": "VEC3"
    },
    {
      "bufferView": 2,
      "byteOffset": 3931920,
      "componentType": 5126,
      "count": 65532,
      "max": [
        0.9999851584434509,
        0.9999721646308899,
        0.999782145023346
      ],
      "min": [
        -0.9999726414680481,
        -0.9999609589576721,
        -1.0
      ],
      "type": "VEC3"
    },
    {
      "bufferView": 1,
      "byteOffset": 1048512,
      "componentType": 5126,
      "count": 65532,
      "max": [
        0.9937440156936646,
        0.9999740123748779
      ],
      "min": [
        0.00046999999904073775,
        0.00011998414993286133
      ],
      "type": "VEC2"
    },
    {
      "bufferView": 0,
      "byteOffset": 2817096,
      "componentType": 5125,
      "count": 343041,
      "type": "SCALAR"
    },
    {
      "bufferView": 2,
      "byteOffset": 4718304,
      "componentType": 5126,
      "count": 65532,
      "max": [
        0.19862300157546997,
        0.3900800049304962,
        0.9476119875907898
      ],
      "min": [
        -0.427623987197876,
        -0.4800409972667694,
        -0.9507250189781189
      ],
      "type": "VEC3"
    },
    {
      "bufferView": 2,
      "byteOffset": 5504688,
      "componentType": 5126,
      "count": 65532,
      "max": [
        0.9999920129776001,
        0.9999921321868896,
        0.9999954700469971
      ],
      "min": [
        -0.9999984502792358,
        -0.9999751448631287,
        -1.0
      ],
      "type": "VEC3"
    },
    {
      "bufferView": 1,
      "byteOffset": 1572768,
      "componentType": 5126,
      "count": 65532,
      "max": [
        0.9953020215034485,
        0.9968590140342712
      ],
      "min": [
        2.499999936844688e-05,
        3.0994415283203125e-05
      ],
      "type": "VEC2"
    },
    {
      "bufferView": 0,
      "byteOffset": 4189260,
      "componentType": 5125,
      "count": 338397,
      "type": "SCALAR"
    },
    {
      "bufferView": 2,
      "byteOffset": 6291072,
      "componentType": 5126,
      "count": 65532,
      "max": [
        0.28154200315475464,
        0.4793640077114105,
        0.9072229862213135
      ],
      "min": [
        0.023281000554561615,
        -0.43153101205825806,
        -0.7562800049781799
      ],
      "type": "VEC3"
    },
    {
      "bufferView": 2,
      "byteOffset": 7077456,
      "componentType": 5126,
      "count": 65532,
      "max": [
        0.9999660849571228,
        0.9999917149543762,
        0.9999481439590454
      ],
      "min": [
        -0.9999454617500305,
        -0.9999911189079285,
        -0.9999024271965027
      ],
      "type": "VEC3"
    },
    {
      "bufferView": 1,
      "byteOffset": 2097024,
      "componentType": 5126,
      "count": 65532,
      "max": [
        0.9937440156936646,
        0.9953020215034485
      ],
      "min": [
        3.199999991920777e-05,
        4.8995018005371094e-05
      ],
      "type": "VEC2"
    },
    {
      "bufferView": 0,
      "byteOffset": 5542848,
      "componentType": 5125,
      "count": 342564,
      "type": "SCALAR"
    },
    {
      "bufferView": 2,
      "byteOffset": 7863840,
      "componentType": 5126,
      "count": 7050,
      "max": [
        0.2871890068054199,
        0.26214998960494995,
        0.38777801394462585
      ],
      "min": [
        0.22037899494171143,
        -0.32532799243927,
        -0.9506490230560303
      ],
      "type": "VEC3"
    },
    {
      "bufferView": 2,
      "byteOffset": 7948440,
      "componentType": 5126,
      "count": 7050,
      "max": [
        0.9999906420707703,
        0.9985746741294861,
        0.9995791912078857
      ],
      "min": [
        -0.9999586343765259,
        -0.9999061822891235,
        -0.9999952912330627
      ],
      "type": "VEC3"
    },
    {
      "bufferView": 1,
      "byteOffset": 2621280,
      "componentType": 5126,
      "count": 7050,
      "max": [
        0.9953020215034485,
        0.9875140190124512
      ],
      "min": [
        0.0001539999939268455,
        0.0004990100860595703
      ],
      "type": "VEC2"
    },
    {
      "bufferView": 0,
      "byteOffset": 6913104,
      "componentType": 5125,
      "count": 30318,
      "type": "SCALAR"
    }
  ],
  "asset": {
    "extras": {
      "author": "Dant876 (https://sketchfab.com/Dant876)",
      "license": "CC-BY-4.0 (http://creativecommons.org/licenses/by/4.0/)",
      "source": "https://sketchfab.com/3d-models/inosuke-hashibira-demon-slayer-3d-model-3bc7c00c4bbf408a93f125ec8a4d421f",
      "title": "Inosuke Hashibira Demon Slayer_3d Model"
    },
    "generator": "Sketchfab-17.17.0",
    "version": "2.0"
  },
  "bufferViews": [
    {
      "buffer": 0,
      "byteLength": 7034376,
      "name": "floatBufferViews",
      "target": 34963
    },
    {
      "buffer": 0,
      "byteLength": 2677680,
      "byteOffset": 7034376,
      "byteStride": 8,
      "name": "floatBufferViews",
      "target": 34962
    },
    {
      "buffer": 0,
      "byteLength": 8033040,
      "byteOffset": 9712056,
      "byteStride": 12,
      "name": "floatBufferViews",
      "target": 34962
    }
  ],
  "buffers": [
    {
      "byteLength": 17745096,
      "uri": "scene.bin"
    }
  ],
  "extensionsUsed": [
    "KHR_materials_unlit"
  ],
  "images": [
    {
      "uri": "colors/Material.001_baseColor.jpeg"
    }
  ],
  "materials": [
    {
      "doubleSided": true,
      "extensions": {
        "KHR_materials_unlit": {}
      },
      "name": "Material.001",
      "pbrMetallicRoughness": {
        "baseColorcolor": {
          "index": 0
        },
        "metallicFactor": 0.0
      }
    }
  ],
  "meshes": [
    {
      "name": "Mesh_0_Material.001_0",
      "primitives": [
        {
          "attributes": {
            "NORMAL": 1,
            "POSITION": 0,
            "TEXCOORD_0": 2
          },
          "indices": 3,
          "material": 0,
          "mode": 4
        }
      ]
    },
    {
      "name": "Mesh_0_Material.001_0",
      "primitives": [
        {
          "attributes": {
            "NORMAL": 5,
            "POSITION": 4,
            "TEXCOORD_0": 6
          },
          "indices": 7,
          "material": 0,
          "mode": 4
        }
      ]
    },
    {
      "name": "Mesh_0_Material.001_0",
      "primitives": [
        {
          "attributes": {
            "NORMAL": 9,
            "POSITION": 8,
            "TEXCOORD_0": 10
          },
          "indices": 11,
          "material": 0,
          "mode": 4
        }
      ]
    },
    {
      "name": "Mesh_0_Material.001_0",
      "primitives": [
        {
          "attributes": {
            "NORMAL": 13,
            "POSITION": 12,
            "TEXCOORD_0": 14
          },
          "indices": 15,
          "material": 0,
          "mode": 4
        }
      ]
    },
    {
      "name": "Mesh_0_Material.001_0",
      "primitives": [
        {
          "attributes": {
            "NORMAL": 17,
            "POSITION": 16,
            "TEXCOORD_0": 18
          },
          "indices": 19,
          "material": 0,
          "mode": 4
        }
      ]
    },
    {
      "name": "Mesh_0_Material.001_0",
      "primitives": [
        {
          "attributes": {
            "NORMAL": 21,
            "POSITION": 20,
            "TEXCOORD_0": 22
          },
          "indices": 23,
          "material": 0,
          "mode": 4
        }
      ]
    }
  ],
  "nodes": [
    {
      "children": [
        1
      ],
      "matrix": [
        1.0,
        0.0,
        0.0,
        0.0,
        0.0,
        2.220446049250313e-16,
        -1.0,
        0.0,
        0.0,
        1.0,
        2.220446049250313e-16,
        0.0,
        0.0,
        0.0,
        0.0,
        1.0
      ],
      "name": "Sketchfab_model"
    },
    {
      "children": [
        2
      ],
      "matrix": [
        0.009999999776482582,
        0.0,
        0.0,
        0.0,
        0.0,
        0.0,
        0.009999999776482582,
        0.0,
        0.0,
        -0.009999999776482582,
        0.0,
        0.0,
        0.0,
        0.0,
        0.0,
        1.0
      ],
      "name": "Meshy_AI_Boar_Warrior_0703223134_color.fbx"
    },
    {
      "children": [
        3
      ],
      "name": "RootNode"
    },
    {
      "children": [
        4,
        5,
        6,
        7,
        8,
        9
      ],
      "matrix": [
        100.0,
        0.0,
        0.0,
        0.0,
        0.0,
        -4.371139006309477e-06,
        -99.9999999999999,
        0.0,
        0.0,
        99.9999999999999,
        -4.371139006309477e-06,
        0.0,
        0.0,
        0.0,
        0.0,
        1.0
      ],
      "name": "Mesh_0"
    },
    {
      "mesh": 0,
      "name": "Mesh_0_Material.001_0"
    },
    {
      "mesh": 1,
      "name": "Mesh_0_Material.001_0"
    },
    {
      "mesh": 2,
      "name": "Mesh_0_Material.001_0"
    },
    {
      "mesh": 3,
      "name": "Mesh_0_Material.001_0"
    },
    {
      "mesh": 4,
      "name": "Mesh_0_Material.001_0"
    },
    {
      "mesh": 5,
      "name": "Mesh_0_Material.001_0"
    }
  ],
  "samplers": [
    {
      "magFilter": 9729,
      "minFilter": 9987,
      "wrapS": 10497,
      "wrapT": 10497
    }
  ],
  "scene": 0,
  "scenes": [
    {
      "name": "Sketchfab_Scene",
      "nodes": [
        0
      ]
    }
  ],
  "colors": [
    {
      "sampler": 0,
      "source": 0
    }
  ]
}
